<svg xmlns="http://www.w3.org/2000/svg" viewBox="0 0 1200 675" role="img" aria-labelledby="title desc">
  <title id="title">Brain gain editorial cover</title>
  <desc id="desc">Original abstract illustration of knowledge, skills, and networks flowing back to Bangladesh.</desc>
  <defs>
    <linearGradient id="bg" x1="0" x2="1" y1="0" y2="1">
      <stop offset="0" stop-color="#ffffff"/>
      <stop offset=".48" stop-color="#eef5f0"/>
      <stop offset="1" stop-color="#fdf8ec"/>
    </linearGradient>
    <linearGradient id="path" x1="0" x2="1" y1="0" y2="0">
      <stop offset="0" stop-color="#0e8a42"/>
      <stop offset=".55" stop-color="#22d46e"/>
      <stop offset="1" stop-color="#e0aa2a"/>
    </linearGradient>
    <filter id="shadow" x="-20%" y="-20%" width="140%" height="140%">
      <feDropShadow dx="0" dy="20" stdDeviation="22" flood-color="#06100a" flood-opacity=".14"/>
    </filter>
  </defs>
  <rect width="1200" height="675" fill="url(#bg)"/>
  <path d="M151 510c159-56 305-64 438-23 151 46 301 34 451-36v224H151Z" fill="#e2efe8"/>
  <g fill="none" stroke="#bdd0c4" stroke-width="5" stroke-linecap="round">
    <path d="M270 235h201"/>
    <path d="M729 235h201"/>
    <path d="M600 326v132"/>
    <path d="M451 395h298"/>
  </g>
  <g filter="url(#shadow)">
    <rect x="236" y="145" width="236" height="178" rx="26" fill="#ffffff" stroke="#bdd0c4" stroke-width="3"/>
    <rect x="728" y="145" width="236" height="178" rx="26" fill="#ffffff" stroke="#bdd0c4" stroke-width="3"/>
    <rect x="450" y="384" width="300" height="158" rx="28" fill="#062b12"/>
  </g>
  <path d="M470 235c84-62 172-62 260 0" fill="none" stroke="url(#path)" stroke-width="16" stroke-linecap="round"/>
  <path d="m712 187 45 46-45 46" fill="none" stroke="#e0aa2a" stroke-width="16" stroke-linecap="round" stroke-linejoin="round"/>
  <g fill="#0d6130">
    <circle cx="325" cy="214" r="27"/>
    <circle cx="389" cy="214" r="27"/>
    <circle cx="357" cy="259" r="27"/>
    <path d="M330 218c-12 18-8 43 10 57"/>
    <path d="M388 218c12 18 8 43-10 57"/>
  </g>
  <g fill="#c01636">
    <rect x="795" y="197" width="102" height="74" rx="14"/>
    <path d="m846 160 92 45H754z"/>
    <rect x="819" y="271" width="54" height="15" rx="7"/>
  </g>
  <g fill="#ffffff">
    <circle cx="600" cy="449" r="36"/>
    <path d="M531 514c11-45 38-68 69-68s58 23 69 68z"/>
  </g>
  <g stroke="#22d46e" stroke-width="6" stroke-linecap="round">
    <path d="M544 429h-54"/>
    <path d="M656 429h54"/>
    <path d="M600 388v-42"/>
  </g>
</svg>
