<svg xmlns="http://www.w3.org/2000/svg" viewBox="0 0 1200 675" role="img" aria-labelledby="title desc">
  <title id="title">July uprising editorial cover</title>
  <desc id="desc">Original abstract illustration of a civic dawn, raised hands, and a new democratic horizon.</desc>
  <defs>
    <linearGradient id="sky" x1="0" x2="1" y1="0" y2="1">
      <stop offset="0" stop-color="#f7fff9"/>
      <stop offset=".54" stop-color="#e6f5ed"/>
      <stop offset="1" stop-color="#fff4f0"/>
    </linearGradient>
    <linearGradient id="ground" x1="0" x2="1" y1="0" y2="0">
      <stop offset="0" stop-color="#062b12"/>
      <stop offset=".5" stop-color="#0d6130"/>
      <stop offset="1" stop-color="#5c0818"/>
    </linearGradient>
    <filter id="soft" x="-20%" y="-20%" width="140%" height="140%">
      <feDropShadow dx="0" dy="18" stdDeviation="18" flood-color="#06100a" flood-opacity=".16"/>
    </filter>
  </defs>
  <rect width="1200" height="675" fill="url(#sky)"/>
  <path d="M0 424c147-66 283-87 409-63 112 21 189 77 321 66 141-12 232-91 470-43v291H0Z" fill="#dff0e7"/>
  <circle cx="604" cy="276" r="92" fill="#d92347" opacity=".94"/>
  <path d="M0 470c174-74 317-75 430-4 92 58 193 74 304 23 135-63 284-62 466 3v183H0Z" fill="url(#ground)"/>
  <g filter="url(#soft)" fill="#fff">
    <path d="M339 425h54v142h-54z"/>
    <path d="M455 390h60v177h-60z"/>
    <path d="M575 410h58v157h-58z"/>
    <path d="M697 382h64v185h-64z"/>
    <path d="M817 430h54v137h-54z"/>
  </g>
  <g fill="none" stroke="#ffffff" stroke-linecap="round" stroke-width="18">
    <path d="M363 415c-16-27-24-53-24-77"/>
    <path d="M485 380c-12-36-10-70 7-101"/>
    <path d="M604 402c6-41 20-75 43-101"/>
    <path d="M731 374c12-34 35-62 70-83"/>
    <path d="M844 420c21-23 44-39 69-49"/>
  </g>
  <g fill="#ffffff">
    <circle cx="338" cy="331" r="21"/>
    <circle cx="500" cy="270" r="23"/>
    <circle cx="656" cy="291" r="22"/>
    <circle cx="812" cy="281" r="23"/>
    <circle cx="925" cy="366" r="20"/>
  </g>
  <path d="M232 560h736" stroke="#f3d98a" stroke-width="10" stroke-linecap="round" opacity=".82"/>
  <path d="M248 590h704" stroke="#22d46e" stroke-width="6" stroke-linecap="round" opacity=".62"/>
</svg>
