<svg xmlns="http://www.w3.org/2000/svg" viewBox="0 0 1200 675" role="img" aria-labelledby="title desc">
  <title id="title">Diaspora voting rights editorial cover</title>
  <desc id="desc">Original abstract illustration of a ballot box connected across borders.</desc>
  <defs>
    <linearGradient id="bg" x1="0" x2="1" y1="0" y2="1">
      <stop offset="0" stop-color="#f5faf7"/>
      <stop offset=".48" stop-color="#eef6ff"/>
      <stop offset="1" stop-color="#fdf0f2"/>
    </linearGradient>
    <linearGradient id="box" x1="0" x2="1" y1="0" y2="1">
      <stop offset="0" stop-color="#ffffff"/>
      <stop offset="1" stop-color="#d4f7e3"/>
    </linearGradient>
    <filter id="shadow" x="-20%" y="-20%" width="140%" height="140%">
      <feDropShadow dx="0" dy="22" stdDeviation="24" flood-color="#06100a" flood-opacity=".15"/>
    </filter>
  </defs>
  <rect width="1200" height="675" fill="url(#bg)"/>
  <path d="M132 520c158-80 315-91 472-33 145 54 299 42 464-38v226H132Z" fill="#e3f0e8"/>
  <g fill="none" stroke="#8fa898" stroke-width="4" stroke-linecap="round" opacity=".55">
    <path d="M213 176c110 77 242 116 397 117 142 0 271-31 388-92"/>
    <path d="M252 330c97-67 218-91 364-72 136 18 248-7 336-74"/>
    <path d="M306 470c145-64 293-70 444-18 86 29 168 30 247 2"/>
  </g>
  <g filter="url(#shadow)">
    <rect x="371" y="286" width="458" height="236" rx="30" fill="url(#box)" stroke="#bdd0c4" stroke-width="4"/>
    <path d="M428 286h344l-50-86H478Z" fill="#ffffff" stroke="#bdd0c4" stroke-width="4" stroke-linejoin="round"/>
    <rect x="510" y="258" width="180" height="22" rx="11" fill="#0d6130"/>
    <path d="M486 376h228" stroke="#0d6130" stroke-width="14" stroke-linecap="round"/>
    <path d="M486 426h158" stroke="#c01636" stroke-width="14" stroke-linecap="round"/>
  </g>
  <g fill="#ffffff" stroke="#0d6130" stroke-width="5" filter="url(#shadow)">
    <circle cx="212" cy="176" r="48"/>
    <circle cx="1000" cy="201" r="48"/>
    <circle cx="969" cy="454" r="43"/>
    <circle cx="285" cy="477" r="43"/>
  </g>
  <g fill="#0d6130">
    <path d="M199 167h26v42h-26z"/>
    <path d="M197 156h30l-15-18z"/>
    <path d="M986 187h28v38h-28z"/>
    <path d="M982 180h36l-18-19z"/>
    <path d="M955 445h27v37h-27z"/>
    <path d="M953 437h31l-16-17z"/>
    <path d="M272 468h27v37h-27z"/>
    <path d="M270 460h31l-16-17z"/>
  </g>
  <circle cx="600" cy="407" r="38" fill="#d92347"/>
  <path d="m584 405 18 18 35-44" fill="none" stroke="#ffffff" stroke-width="10" stroke-linecap="round" stroke-linejoin="round"/>
</svg>
